# xmcd
#
# Track frame offsets:
#	183
#	14708
#	32968
#	45810
#	61305
#	79328
#	94920
#	114528
#	131058
#	158160
#	184723
#
# Disc length: 2856 seconds
#
# Revision: 1
# Processed by: cddbd v1.5.1PL0 Copyright (c) Steve Scherf et al.
# Submitted via: audiograbber 1.82.02
#
DISCID=8f0b260b
DTITLE=T.C. Matic - Choco
DYEAR=1900
DGENRE=Blues
TTITLE0=01. If  you wanna dance, dance, if you don't, don't
TTITLE1=Ha Ha
TTITLE2=L'amour n'est pas avec moi
TTITLE3=Arrividerci solo
TTITLE4=Living on my instict
TTITLE5=Call me up
TTITLE6=Putain, putain
TTITLE7=Being somebody else
TTITLE8=They never make you laugh
TTITLE9=Putain putain (euromix)
TTITLE10=Living on my instict (euromix)
EXTD=
EXTT0=
EXTT1=
EXTT2=
EXTT3=
EXTT4=
EXTT5=
EXTT6=
EXTT7=
EXTT8=
EXTT9=
EXTT10=
PLAYORDER=
